# xmcd
#
# Track frame offsets: 
#        150
#        22193
#        37443
#        53121
#        72381
#        88019
#        103480
#        122820
#        144317
#        160231
#        176079
#        192818
#        209030
#        226061
#        241871
#        258039
#        269576
#        285614
#        303931
#
# Disc length: 4226 seconds
#
# Revision: 0
# Processed by: cddbd v1.5.2PL0 Copyright (c) Steve Scherf et al.
# Submitted via: ExactAudioCopy v0.90b3
#
DISCID=20108013
DTITLE=Sommer auf dem Balkon - 2 -REX
DYEAR=2010
DGENRE=Pop
TTITLE0=SOMMER HINTER GLAS - WERNER,PE
TTITLE1=DENK WAS DU WILLST (RADIO EDIT) - MEYLE,GREGOR
TTITLE2=GRASGRÜNER TAG - INKA
TTITLE3=SOLANG' MAN TRÄUME NOCH LEBEN KANN (ALBUM VERSION - MÜNCHENER 
TTITLE3=FREIHEIT
TTITLE4=ICH LEBE (WEIL ICH LIEBE) - MARCUS,CLAUS
TTITLE5=EIN BISSCHEN ÄLTER - PRINZ,MICHAEL 
TTITLE6=LACHEN - ROSENSTOLZ
TTITLE7=RICHTUNG SÜDEN - PURPUR
TTITLE8=WENN WIR WÜSSTEN (RADIO EDIT) - MEIN MIO
TTITLE9=WUNDER - MOHNBLAU
TTITLE10=TOI ET LA MER (DU UND DAS MEER) (RADIO VERSION) - EBRAHIMI,SU
TTITLE10=SAN
TTITLE11=EIN TAG IN DER STADT - SCHILLING,PETER
TTITLE12=FÜR DICH - CATTERFELD,YVONNE
TTITLE13=ICH HAB DICH BLOSS GELIEBT (ALBUM VERSION) - SULKE,STEFAN
TTITLE14=AN EINEM SONNTAG AUF DEM BALKON (ALBUM VERSION) - LINCK
TTITLE15=FUß OHNE SCHUH (ALBUM VERSION) - EISBRENNER
TTITLE16=DEN SOMMER ÜBERLEBT - HAAS,KONRAD
TTITLE17=WENN DER MOND DIE SONNE BERÜHRT (LIVE) - KAH,HUBERT
TTITLE18=UNTER EINER KLEINEN DECKE IN DER NACHT (DAS KUSCHELlied - REM
TTITLE18=MLER STEPHAN
EXTD=
EXTT0=
EXTT1=
EXTT2=
EXTT3=
EXTT4=
EXTT5=
EXTT6=
EXTT7=
EXTT8=
EXTT9=
EXTT10=
EXTT11=
EXTT12=
EXTT13=
EXTT14=
EXTT15=
EXTT16=
EXTT17=
EXTT18=
PLAYORDER=
